<?xml version="1.0" encoding="UTF-8" standalone="no"?>
<!DOCTYPE svg PUBLIC "-//W3C//DTD SVG 1.1//EN" "http://www.w3.org/Graphics/SVG/1.1/DTD/svg11.dtd">
<svg xmlns="http://www.w3.org/2000/svg" version="1.1" viewbox="0 0 29 27" width="29.0pt" height="27.0pt">
<path d="M 0.00 0.00 L 11.89 0.00 C 8.57 1.62 5.97 4.06 5.92 7.99 C 5.78 11.32 7.75 13.16 9.77 15.46 C 5.03 17.11 2.12 20.27 0.00 24.73 L 0.00 0.00 Z" fill="#ffffff" />
<path d="M 11.89 0.00 L 17.21 0.00 L 19.05 1.01 C 21.39 2.75 23.10 4.94 23.09 7.99 C 23.23 11.30 21.29 13.15 19.28 15.43 C 24.18 17.27 26.77 19.95 29.00 24.63 L 29.00 27.00 L 28.06 27.00 C 26.79 24.62 25.91 21.99 23.87 20.14 C 18.84 15.08 9.43 15.33 4.69 20.69 C 2.84 22.54 2.30 24.73 1.15 27.00 L 0.00 27.00 L 0.00 24.73 C 2.12 20.27 5.03 17.11 9.77 15.46 C 7.75 13.16 5.78 11.32 5.92 7.99 C 5.97 4.06 8.57 1.62 11.89 0.00 Z" fill="#a5a5ac" />
<path d="M 17.21 0.00 L 29.00 0.00 L 29.00 24.63 C 26.77 19.95 24.18 17.27 19.28 15.43 C 21.29 13.15 23.23 11.30 23.09 7.99 C 23.10 4.94 21.39 2.75 19.05 1.01 L 17.21 0.00 Z" fill="#ffffff" />
<path d="M 11.31 2.32 C 13.92 1.00 17.37 1.43 19.43 3.58 C 21.88 5.80 21.90 10.28 19.55 12.58 C 16.68 15.48 11.52 15.27 8.98 12.04 C 6.63 8.81 7.67 4.10 11.31 2.32 Z" fill="#ffffff" />
<path d="M 23.87 20.14 C 25.91 21.99 26.79 24.62 28.06 27.00 L 1.15 27.00 C 2.30 24.73 2.84 22.54 4.69 20.69 C 9.43 15.33 18.84 15.08 23.87 20.14 Z" fill="#ffffff" />
</svg>