<svg xmlns="http://www.w3.org/2000/svg" viewBox="0 0 100 100"
     width="29pt" height="27pt" id="svg-contact">
  <path id="vector" fill="#000"
        d="M26.5 0h5.29l.9.21c3.37 1.09 6.51 2.52 8.92 5.21 5 5.27 6.09 13.51 2.77 19.95-1.4 2.84-3.6 4.76-5.91 6.82 4.84 1.86 8.42 4.17 12.2 7.7 1.71-1.22 3.44-2.39 5.23-3.5-2.03-2.91-3.68-5.69-3.16-9.41.63-5.53 5.72-9.72 11.28-9.14 5.59.48 9.8 5.6 9.38 11.17-.1 2.92-1.64 4.94-3.18 7.26 4.95 2.71 8.27 6.41 9.78 11.92v2.1c-.88-.03-2.5.72-3.14-.05-1.7-3.18-2.44-6.31-5.55-8.55-5.49-4.33-13.06-3.44-18.05 1.23 1.99 3.34 4.29 7.21 4.87 11.1.41 1.88-1.62 2.72-3.04 1.93-1.63-3.19-2.23-6.62-4.44-9.57-4.76-7.19-12.95-11.8-21.65-11.5-9.62-.22-18.66 5.7-22.89 14.23C4.9 51.61 4.13 54.39 3.1 57H.47L0 56.43v-2.22c2.71-10.45 9.7-18.33 19.89-21.99-5.24-3.9-8.44-9.58-7.88-16.24C12.59 7.85 18.64 1.64 26.5 0z"/>
  <path
    d="M25.44 4.46c6.02-1.8 12.59 1.12 15.42 6.68 3.03 5.72 1.37 13.09-3.81 16.96-3.21 2.53-7.32 3.03-11.25 2.23-5.94-1.47-10.16-7.25-9.93-13.33.12-5.73 4.07-10.93 9.57-12.54zM60.34 22.37a6.424 6.424 0 0 1 7.59 1.69c2.13 2.49 2.06 6.27-.16 8.69-2.58 2.95-7.75 2.66-9.96-.61-2.37-3.32-1.14-8.04 2.53-9.77zM29 34.88c8.7-.3 16.89 4.31 21.65 11.5 2.21 2.95 2.81 6.38 4.44 9.57 1.42.79 3.45-.05 3.04-1.93-.58-3.89-2.88-7.76-4.87-11.1 4.99-4.67 12.56-5.56 18.05-1.23 3.11 2.24 3.85 5.37 5.55 8.55.64.77 2.26.02 3.14.05V57H3.1c1.03-2.61 1.8-5.39 3.01-7.89C10.34 40.58 19.38 34.66 29 34.88zM0 56.43l.47.57H0v-.57z" class="back" fill="#ffffff"/>
</svg>
